# xmcd CD database file
#
# Track frame offsets:
#	182
#	13277
#	25095
#	34250
#	45420
#	61157
#	72440
#	88580
#	101420
#	113880
#	131357
#	142765
#	157485
#	166677
#
# Disc length: 2351 seconds
#
# Revision: 3
# Processed by: cddbd v1.5.2PL0 Copyright (c) Steve Scherf et al.
# Submitted via: CDex 1.51
#
DISCID=b3092d0e
DTITLE=Tennessee Ernie Ford - Sweet Hour of Prayer
DYEAR=1993
DGENRE=Gospel
TTITLE0=Sweet Hour of Prayer
TTITLE1=How Great Thou Art
TTITLE2=Bringing in the Sheaves
TTITLE3=Whispering Hope
TTITLE4=Nearer My God to Thee
TTITLE5=Hold to God's Unchanging Hand
TTITLE6=Jesus Keep Me Hear the Cross
TTITLE7=Precious Memories
TTITLE8=Rock of Ages
TTITLE9=What a Friend We Have in Jesus
TTITLE10=Abide With Thee
TTITLE11=Almost Persuaded
TTITLE12=Shall We Gather at the River
TTITLE13=Brighten the Corner
EXTD=YEAR: 1993
EXTT0=
EXTT1=
EXTT2=
EXTT3=
EXTT4=
EXTT5=
EXTT6=
EXTT7=
EXTT8=
EXTT9=
EXTT10=
EXTT11=
EXTT12=
EXTT13=
PLAYORDER=
